<?xml version="1.0" encoding="UTF-8"?>
<svg width="64px" height="64px" viewBox="0 0 128 128" version="1.1" xmlns="http://www.w3.org/2000/svg" xmlns:xlink="http://www.w3.org/1999/xlink">
    <title>example</title>
    <g id="example" stroke="none" stroke-width="1" fill="none" fill-rule="evenodd">
        <rect id="Rectangle" fill="#be5c1c" x="0" y="0" width="128" height="128" rx="12"></rect>
        <rect id="Rectangle" fill="#19a288" opacity="0.323496501" x="26" y="84" width="16" height="16" rx="3"></rect>
        <rect id="Rectangle" fill="#1c5ad6" opacity="0.323496501" x="46" y="84" width="16" height="16" rx="3"></rect>
        <rect id="Rectangle" fill="#860317" opacity="0.323496501" x="66" y="84" width="16" height="16" rx="3"></rect>
        <rect id="Rectangle" fill="#19a288" opacity="0.323496501" x="86" y="84" width="16" height="16" rx="3"></rect>
        <rect id="Rectangle" fill="#1c5ad6" opacity="0.323496501" x="26" y="64" width="16" height="16" rx="3"></rect>
        <rect id="Rectangle" fill="#860317" opacity="0.323496501" x="46" y="64" width="16" height="16" rx="3"></rect>
        <rect id="Rectangle" fill="#19a288" opacity="0.323496501" x="66" y="64" width="16" height="16" rx="3"></rect>
        <rect id="Rectangle" fill="#1c5ad6" opacity="0.323496501" x="86" y="64" width="16" height="16" rx="3"></rect>
        <path d="M63.9142454,19 C80.228558,19 93.5013187,32.0224318 93.9047956,48.2395634 C93.7826245,49.7845424 92.4903776,51 90.9142454,51 L66.6155324,51 L73.1763908,39.6366505 C73.5867571,38.9258751 73.381692,38.0286624 72.7265325,37.5620595 L72.5984559,37.4797683 C71.843257,37.043754 70.877588,37.3025043 70.4415737,38.0577032 L70.4415737,38.0577032 L62.9685324,51 L36.9142454,51 C35.3374291,51 34.0447446,49.7834871 33.9235324,48.2378016 C34.3282635,32.0213609 47.6006035,19 63.9142454,19 Z" id="Combined-Shape" fill="#6a81f5" opacity="0.803136916"></path>
    </g>
</svg>